HIERARCHY
ROOT Hips
{
	OFFSET 0.00 0.00 0.00
	CHANNELS 6 Xposition Yposition Zposition Xrotation Yrotation Zrotation
	JOINT Spine
	{
		OFFSET 0.00000 4.88528 0.00000
		CHANNELS 3 Xrotation Yrotation Zrotation
		JOINT Head
		{
			OFFSET 0.00000 16.49416 0.00000
			CHANNELS 3 Xrotation Yrotation Zrotation
			End Site
			{
				OFFSET 0.00000 4.52755 0.00000
			}
		}
		JOINT LeftShoulder
		{
			OFFSET 0.00000 10.66345 0.00000
			CHANNELS 3 Xrotation Yrotation Zrotation
			JOINT LeftArm
			{
				OFFSET 7.53191 0.00000 0.00000
				CHANNELS 3 Xrotation Yrotation Zrotation
				JOINT LeftForeArm
				{
					OFFSET 10.22920 0.00000 0.00000
					CHANNELS 3 Yrotation Zrotation Xrotation
					JOINT LeftHand
					{
						OFFSET 8.67349 0.00000 0.00000
						CHANNELS 3 Xrotation Yrotation Zrotation
						JOINT LeftHandThumb1
						{
							OFFSET 0.00000 0.00000 0.00000
							CHANNELS 3 Xrotation Zrotation Yrotation
							End Site
							{
								OFFSET 0.00000 0.00000 3.93700
							}
						}
						End Site
						{
							OFFSET 3.93700 0.00000 0.00000
						}
					}
				}
			}
		}
		JOINT RightShoulder
		{
			OFFSET 0.00000 10.66345 0.00000
			CHANNELS 3 Xrotation Yrotation Zrotation
			JOINT RightArm
			{
				OFFSET -7.53191 0.00000 0.00000
				CHANNELS 3 Xrotation Yrotation Zrotation
				JOINT RightForeArm
				{
					OFFSET -10.22920 0.00000 0.00000
					CHANNELS 3 Yrotation Zrotation Xrotation
					JOINT RightHand
					{
						OFFSET -8.67349 0.00000 0.00000
						CHANNELS 3 Xrotation Yrotation Zrotation
						JOINT RightHandThumb1
						{
							OFFSET 0.00000 0.00000 0.00000
							CHANNELS 3 Xrotation Zrotation Yrotation
							End Site
							{
								OFFSET 0.00000 0.00000 3.93700
							}
						}
						End Site
						{
							OFFSET -3.93700 0.00000 0.00000
						}
					}
				}
			}
		}
	}
	JOINT LeftUpLeg
	{
		OFFSET 2.67219 0.00000 0.00000
		CHANNELS 3 Xrotation Yrotation Zrotation
		JOINT LeftLeg
		{
			OFFSET 0.00000 -16.26339 0.00000
			CHANNELS 3 Xrotation Yrotation Zrotation
			JOINT LeftFoot
			{
				OFFSET 0.00000 -14.32816 0.00000
				CHANNELS 3 Xrotation Yrotation Zrotation
				JOINT LeftToeBase
				{
					OFFSET 0.00000 -1.30219 4.85985
					CHANNELS 3 Xrotation Yrotation Zrotation
					End Site
					{
						OFFSET 0.00000 0.00000 2.95275
					}
				}
			}
		}
	}
	JOINT RightUpLeg
	{
		OFFSET -2.67219 0.00000 0.00000
		CHANNELS 3 Xrotation Yrotation Zrotation
		JOINT RightLeg
		{
			OFFSET 0.00000 -16.26339 0.00000
			CHANNELS 3 Xrotation Yrotation Zrotation
			JOINT RightFoot
			{
				OFFSET 0.00000 -14.32816 0.00000
				CHANNELS 3 Xrotation Yrotation Zrotation
				JOINT RightToeBase
				{
					OFFSET 0.00000 -1.30219 4.85985
					CHANNELS 3 Xrotation Yrotation Zrotation
					End Site
					{
						OFFSET 0.00000 0.00000 2.95275
					}
				}
			}
		}
	}
}
MOTION
Frames: 9
Frame Time: 0.008333
 1.2748 32.7246 1.5258 8.4548 3.3595 -0.3246 -12.1966 -7.5462 -2.8149 17.8075 -1.3904 -1.3381 32.4512 32.2795 19.0531 -69.6362 -7.8294 -28.6598 2.4422 0.0000 4.4053 0.4805 -5.1501 5.3370 33.1476 -0.0000 26.2537 -7.6950 -2.8655 -31.6352 -18.8736 1.0484 38.7919 1.0662 -0.0000 10.7648 -0.1772 4.5702 2.2228 32.8623 0.0000 -24.3270 -1.2824 -2.6718 -1.2142 -5.4003 0.0000 0.0000 -3.5560 14.9342 -11.0788 -1.9886 0.0000 -0.0000 -1.2458 -2.2537 -0.0457 -4.0062 -0.0000 -0.0000 -7.1909 -9.3790 2.6461 1.4969 0.0000 -0.0000
 1.2749 32.7248 1.5213 8.4486 3.3535 -0.3171 -12.1863 -7.5608 -2.8188 17.8052 -1.4073 -1.3089 32.4357 32.3024 19.0444 -69.6931 -7.8204 -28.6506 2.4372 0.0000 4.4134 0.4803 -5.1692 5.3155 33.1476 -0.0000 26.2537 -7.7196 -2.8473 -31.6494 -18.8622 1.0315 38.7740 1.0718 -0.0000 10.7893 -0.1845 4.6926 2.2545 32.8623 0.0000 -24.3270 -1.2805 -2.6788 -1.2241 -5.4090 0.0000 0.0000 -3.5543 14.9606 -11.0439 -1.9819 0.0000 -0.0000 -1.2592 -2.2720 -0.0516 -3.9839 -0.0000 -0.0000 -7.2052 -9.3495 2.6295 1.5149 -0.0000 -0.0000
 1.2714 32.7256 1.5172 8.4409 3.3532 -0.3201 -12.1743 -7.5626 -2.8236 17.8055 -1.4452 -1.2608 32.3858 32.2953 19.0727 -69.6670 -7.8319 -28.6220 2.4271 0.0000 4.4289 0.4706 -5.1377 5.2409 33.1476 -0.0000 26.2537 -7.6961 -2.8747 -31.6568 -18.9282 0.9822 38.7635 1.0991 -0.0000 10.8256 -0.1822 4.6620 2.2408 32.8623 0.0000 -24.3270 -1.2856 -2.6526 -1.2149 -5.3964 0.0000 -0.0000 -3.5502 14.9306 -11.0619 -1.9785 0.0000 -0.0000 -1.2525 -2.2561 -0.0443 -3.9999 0.0000 -0.0000 -7.1800 -9.3535 2.6269 1.4932 -0.0000 -0.0000
 1.2685 32.7264 1.5136 8.4321 3.3538 -0.3301 -12.1627 -7.5678 -2.8181 17.8056 -1.4806 -1.2119 32.3476 32.2840 19.1012 -69.6679 -7.8196 -28.5948 2.4254 0.0000 4.4889 0.4770 -5.1234 5.3263 33.1476 -0.0000 26.2537 -7.7302 -2.8640 -31.6687 -18.9025 0.9656 38.7519 1.0971 -0.0000 10.8373 -0.1812 4.6281 2.2446 32.8623 0.0000 -24.3270 -1.2833 -2.6408 -1.2004 -5.3946 0.0000 -0.0000 -3.5430 14.9205 -11.0712 -1.9991 -0.0000 0.0000 -1.2499 -2.2498 -0.0297 -3.9999 0.0000 -0.0000 -7.1690 -9.3691 2.6393 1.5142 0.0000 0.0000
 1.2658 32.7270 1.5090 8.4298 3.3442 -0.3288 -12.1537 -7.5797 -2.8251 17.7929 -1.4965 -1.1708 32.3625 32.3250 19.0820 -69.7284 -7.8288 -28.5871 2.4172 0.0000 4.5370 0.4757 -5.0863 5.3498 33.1476 -0.0000 26.2537 -7.7304 -2.8671 -31.6719 -18.9025 0.9706 38.7362 1.0956 -0.0000 10.8174 -0.1791 4.6633 2.2018 32.8623 0.0000 -24.3270 -1.2896 -2.6365 -1.1953 -5.3932 -0.0000 -0.0000 -3.5399 14.9224 -11.0824 -1.9596 -0.0000 -0.0000 -1.2643 -2.2529 -0.0256 -3.9872 -0.0000 0.0000 -7.1627 -9.3633 2.6472 1.4712 0.0000 -0.0000
 1.2633 32.7276 1.5052 8.4292 3.3397 -0.3211 -12.1521 -7.5759 -2.8384 17.7802 -1.5166 -1.1228 32.3462 32.3358 19.1023 -69.7242 -7.8331 -28.5748 2.3866 0.0000 4.5274 0.4630 -5.0578 5.2370 33.1476 -0.0000 26.2537 -7.7561 -2.8719 -31.6911 -18.8899 0.9557 38.7363 1.0850 -0.0000 10.8225 -0.1844 4.7558 2.2227 32.8623 0.0000 -24.3270 -1.3007 -2.6148 -1.1980 -5.3824 -0.0000 0.0000 -3.5337 14.9047 -11.0962 -1.9961 -0.0000 0.0000 -1.2705 -2.2421 -0.0296 -3.9879 0.0000 0.0000 -7.1683 -9.3636 2.6296 1.5282 0.0000 -0.0000
 1.2602 32.7280 1.5009 8.4267 3.3312 -0.3244 -12.1435 -7.5741 -2.8419 17.7642 -1.5548 -1.0715 32.3040 32.3508 19.1268 -69.7239 -7.8482 -28.5739 2.3780 0.0000 4.5630 0.4702 -5.0338 5.3430 33.1476 -0.0000 26.2537 -7.7548 -2.8923 -31.6925 -18.8888 0.9677 38.7176 1.0840 -0.0000 10.7683 -0.1881 4.7837 2.2548 32.8623 0.0000 -24.3270 -1.3070 -2.6186 -1.1875 -5.3796 0.0000 -0.0000 -3.5277 14.9194 -11.1254 -1.9364 -0.0000 0.0000 -1.2832 -2.2493 -0.0209 -3.9747 0.0000 0.0000 -7.1663 -9.3430 2.6255 1.5192 -0.0000 -0.0000
 1.2568 32.7284 1.4969 8.4198 3.3270 -0.3222 -12.1319 -7.5735 -2.8518 17.7414 -1.5672 -1.0193 32.3069 32.3716 19.1315 -69.7305 -7.8687 -28.5564 2.3858 0.0000 4.5071 0.4708 -5.0760 5.3058 33.1476 -0.0000 26.2537 -7.7683 -2.9032 -31.7054 -18.8848 0.9566 38.7188 1.0910 -0.0000 10.7831 -0.1892 4.7395 2.2888 32.8623 0.0000 -24.3270 -1.3094 -2.6057 -1.1843 -5.3748 -0.0000 0.0000 -3.5214 14.9040 -11.1103 -1.9972 0.0000 -0.0000 -1.2855 -2.2335 -0.0161 -3.9714 -0.0000 0.0000 -7.1617 -9.3557 2.6075 1.5084 -0.0000 0.0000
 1.2538 32.7291 1.4936 8.4113 3.3158 -0.3164 -12.1213 -7.5755 -2.8558 17.7220 -1.5933 -1.0017 32.3027 32.3776 19.1207 -69.7430 -7.8848 -28.5292 2.3902 0.0000 4.5037 0.4762 -5.1015 5.3402 33.1476 -0.0000 26.2537 -7.7527 -2.9117 -31.6925 -18.9095 0.9530 38.6790 1.1059 -0.0000 10.7893 -0.1780 4.4812 2.2767 32.8623 0.0000 -24.3270 -1.3044 -2.6001 -1.1836 -5.3799 -0.0000 0.0000 -3.5056 14.9164 -11.1393 -1.9418 0.0000 0.0000 -1.2847 -2.2115 -0.0171 -3.9722 0.0000 0.0000 -7.1597 -9.3696 2.6189 1.5230 -0.0000 0.0000
